# xmcd
#
# Track frame offsets:
# 150
# 19550
# 41592
# 61162
#
# Disc length: 1158 seconds
#
# Revision: 0
# Processed by: cddbd v1.5.1PL2 Copyright (c) Steve Scherf et al.
# Submitted via: plextools 2.32a
#
DISCID=26048404
DTITLE=B/V - Hello Hello -ABEのテーマ-
DYEAR=1997
DGENRE=Pop
TTITLE0=B/V - Hello Hello -ABEのテーマ-
TTITLE1=B/V - タンポポのシーズン
TTITLE2=B/V - Hello Hello -ABEのテーマ- [TV MIX]
TTITLE3=B/V - Hello Hello -ABEのテーマ- [CLUB MIX]
EXTD=
EXTT0=
EXTT1=
EXTT2=
EXTT3=
PLAYORDER=
